<svg width="1882" height="1341" viewBox="0 0 1882 1341" fill="none" xmlns="http://www.w3.org/2000/svg">
<path d="M918.14 1.21719C791.074 5.08386 668.54 24.6839 586.54 54.5505C573.607 59.2172 500.807 92.9505 501.74 93.7505C502.007 94.0172 509.34 91.7505 518.14 88.8172C646.54 46.4172 781.874 23.4839 923.474 19.8839C1090.27 15.7505 1253.21 37.6172 1399.34 83.7505C1411.07 87.3505 1420.81 90.2839 1420.94 90.0172C1421.07 89.8839 1404.27 81.8839 1383.74 72.1505C1342.67 52.9505 1314.27 42.5505 1276.81 33.2172C1203.21 14.8172 1119.07 4.41719 1017.47 1.08386C973.474 -0.382807 966.54 -0.382807 918.14 1.21719Z" fill="#AE2626"/>
<path d="M916.807 31.2171C912.407 31.4838 898.274 32.2838 885.474 33.0838C810.007 37.6171 714.007 53.6171 636.807 74.5505C466.541 120.55 326.007 194.284 214.674 296.017C151.607 353.75 109.874 416.417 98.1405 471.084C96.9405 476.95 95.6072 482.95 95.2072 484.417C94.6739 486.284 96.1405 485.617 100.941 481.617C109.341 474.684 118.007 469.75 125.074 467.884L130.674 466.417L131.474 458.684C134.541 429.484 144.941 406.95 164.674 386.55C180.941 369.75 198.941 358.817 221.074 352.284C242.541 346.017 270.407 346.684 287.607 353.75L291.607 355.35L299.474 337.484C314.541 303.217 329.874 279.217 347.207 262.95C368.941 242.55 392.807 234.417 425.741 236.284C439.607 236.95 460.807 240.55 473.741 244.417L479.874 246.15L484.141 235.35C511.874 165.484 552.541 135.217 610.407 141.084C626.541 142.817 649.474 148.417 667.074 154.95L679.207 159.484L682.541 155.35C702.674 130.417 734.541 114.284 775.074 108.284C793.207 105.617 833.074 106.284 854.141 109.617C873.474 112.684 899.607 119.217 919.074 125.884C935.607 131.617 962.274 142.817 964.674 145.217C967.207 147.484 975.874 146.417 996.941 140.95C1031.87 132.017 1053.74 132.284 1073.07 142.017L1080.01 145.484L1090.67 136.817C1102.27 127.617 1122.27 116.417 1135.61 112.017C1194.14 92.1505 1260.27 106.284 1304.14 148.017C1307.47 151.217 1311.47 155.484 1313.07 157.484L1316.01 161.217L1323.07 157.617C1334.01 152.017 1350.81 146.817 1365.74 144.284C1384.94 141.084 1418.01 142.284 1437.47 146.817C1471.74 154.95 1497.21 167.484 1520.54 187.35C1538.01 202.284 1551.07 222.284 1559.34 246.417C1562.01 254.284 1563.21 256.284 1565.07 256.017C1572.54 254.684 1599.34 255.617 1608.27 257.617C1649.61 266.55 1687.07 289.75 1710.67 321.217C1729.34 346.017 1739.47 370.95 1748.81 415.084L1752.94 435.084L1758.94 437.084C1762.41 438.284 1767.47 441.617 1771.21 445.35C1776.14 450.284 1777.34 451.084 1776.94 448.684C1776.54 447.084 1775.34 440.684 1774.14 434.417C1756.27 340.417 1691.61 256.417 1586.81 190.684C1508.81 141.884 1404.67 99.4838 1292.81 71.3505C1214.67 51.4838 1136.94 39.3505 1048.14 33.0838C1028.81 31.6171 931.874 30.2838 916.807 31.2171Z" fill="#AE2626"/>
<path d="M1166.81 125.884C1164.94 126.151 1159.34 127.084 1154.14 127.884C1127.47 132.151 1101.47 147.617 1089.61 166.284L1085.47 172.684L1076.27 169.484C1058.41 163.484 1048.41 162.017 1028.14 162.017C1006.81 162.017 996.141 164.017 980.007 171.351L971.474 175.351L966.141 171.351C958.407 165.751 937.341 155.351 924.007 150.684C901.874 142.817 870.941 137.351 833.607 134.417C808.274 132.551 796.141 132.684 796.141 134.817C796.141 136.017 802.541 137.751 816.541 140.284C868.407 149.884 900.274 159.084 926.807 172.551C963.874 191.351 986.941 217.884 996.141 252.417C1000.27 267.617 1001.21 297.217 998.274 314.417C991.474 353.617 969.607 393.884 933.874 433.617C921.874 446.817 915.607 448.817 924.007 436.684C932.407 424.284 938.674 408.284 942.141 390.017C947.207 363.484 940.941 360.417 932.674 385.484C927.874 400.284 921.474 412.284 912.674 422.951C903.607 433.884 886.541 447.751 882.007 447.751C880.274 447.751 878.807 447.351 878.807 446.951C878.807 446.417 880.807 442.684 883.341 438.551C892.141 424.151 897.341 408.417 900.007 389.484C901.207 379.751 900.807 374.417 898.674 374.417C896.541 374.417 893.074 381.217 888.141 395.084C885.474 402.684 881.207 412.417 878.674 416.684C872.541 427.084 849.741 449.884 843.874 451.484C841.474 452.151 839.207 452.551 839.074 452.284C838.807 452.151 840.941 447.884 843.874 442.817C851.341 429.884 856.007 417.484 858.941 401.884C861.741 387.884 861.874 379.617 859.341 378.817C857.474 378.151 851.874 388.951 848.141 400.417C846.407 405.484 843.741 412.551 842.007 415.884C837.074 425.617 823.607 441.484 812.807 450.284C804.807 456.684 801.474 458.551 795.207 459.751C721.074 474.417 663.874 492.817 612.141 518.551C565.607 541.751 532.807 566.417 509.207 596.017C500.941 606.417 498.674 608.284 490.274 612.284C469.341 622.284 465.074 623.084 434.941 623.084C414.407 623.084 407.607 623.484 407.207 624.684C406.407 626.951 416.541 631.217 430.807 634.684C444.274 638.017 469.741 638.684 481.874 635.884C486.141 634.951 490.007 634.417 490.274 634.817C491.207 635.751 472.807 644.284 462.007 648.017C453.607 650.817 450.541 651.084 425.207 651.084C407.874 651.084 397.341 651.617 397.207 652.417C396.541 654.551 407.741 659.351 420.807 662.551C436.941 666.551 462.541 666.684 478.141 662.684C484.007 661.217 489.207 660.284 489.607 660.817C490.007 661.351 491.074 665.617 492.007 670.417C492.941 675.084 495.741 684.017 498.274 690.284C500.674 696.417 502.274 702.151 501.741 702.951C501.207 703.751 499.607 708.551 498.141 713.751L495.474 723.084L486.941 727.351C482.141 729.617 470.807 734.017 461.607 736.951C439.341 744.151 346.141 766.817 321.874 770.951C311.207 772.684 302.274 774.551 301.874 774.817C301.474 775.217 303.074 777.884 305.207 780.684C307.474 783.484 310.674 789.084 312.141 793.217L314.941 800.684L358.541 804.951C411.741 810.151 478.407 815.751 486.274 815.751C491.474 815.751 492.407 816.151 493.474 819.217C494.274 821.084 494.807 825.884 494.807 829.884V837.217L487.207 836.417C482.941 836.017 460.941 834.151 438.141 832.417C397.607 829.084 363.207 825.751 352.941 824.284L347.874 823.484L353.074 828.284L358.407 832.951L386.274 835.751C401.607 837.217 432.407 839.884 454.674 841.617C476.941 843.484 495.341 845.217 495.607 845.484C496.541 846.284 501.341 864.284 500.807 864.817C500.407 865.217 443.874 861.084 409.874 858.017C399.341 857.084 390.807 856.417 390.807 856.684C390.807 856.817 393.474 858.551 396.807 860.551C403.341 864.284 415.474 865.884 478.141 871.084C492.807 872.417 504.807 873.484 504.941 873.617C504.941 873.617 507.874 878.417 511.207 884.284L517.474 894.817L506.541 893.884C500.407 893.351 479.074 891.484 458.941 889.617C438.807 887.884 421.874 886.817 421.341 887.351C420.807 887.884 420.007 889.617 419.607 891.217C418.674 894.284 419.874 894.417 495.741 901.084L524.007 903.617L534.674 914.417L545.207 925.084H540.407C537.741 925.084 525.874 924.151 514.141 923.084C502.407 922.017 491.074 921.084 488.941 921.084C485.074 921.084 485.207 921.217 492.141 926.417C496.007 929.351 500.274 931.751 501.341 931.751C502.541 931.884 516.674 933.217 532.941 934.951C557.074 937.351 563.074 938.417 566.274 940.684C579.074 949.617 592.407 956.284 606.541 960.951C630.274 968.684 646.807 977.884 661.741 991.617L669.341 998.551L686.007 1000.02C700.141 1001.22 704.807 1001.08 715.874 999.217C752.674 993.084 796.941 1000.02 831.607 1017.48C843.341 1023.35 843.607 1023.48 864.141 1024.95C881.874 1026.42 885.607 1026.28 890.407 1024.55C893.607 1023.48 903.474 1022.28 913.741 1021.75C929.074 1020.95 933.074 1020.28 943.074 1016.68C949.474 1014.28 954.807 1012.15 954.807 1011.75C954.807 1011.35 951.874 1010.02 948.141 1008.68C944.541 1007.35 938.674 1004.15 935.207 1001.48L928.807 996.551L903.074 995.484C791.341 991.351 684.807 970.017 615.341 937.751C570.674 916.951 536.674 888.684 522.407 860.417C519.607 854.817 513.474 837.217 513.474 834.684C513.474 834.284 517.074 837.484 521.474 841.617C531.074 850.817 543.741 857.084 554.807 858.017C561.341 858.684 562.807 858.417 562.807 856.817C562.807 854.151 559.474 851.351 550.807 847.084C539.074 841.217 527.474 832.417 519.741 823.217C513.741 816.151 512.407 813.617 511.607 807.751C510.541 799.484 511.341 798.017 514.407 802.551C518.941 808.951 527.207 817.084 533.207 821.084C543.474 827.884 562.541 832.684 564.807 829.084C566.274 826.817 563.074 824.151 552.274 818.284C537.741 810.284 529.207 803.484 519.341 791.617C510.674 781.217 510.674 781.084 510.007 771.484L509.207 761.751L513.607 768.417C524.541 785.484 536.274 795.351 551.074 800.017C573.741 806.951 573.607 799.351 550.807 787.617C544.274 784.284 538.007 778.951 525.207 766.151L508.274 749.217L506.807 738.684C506.007 732.817 504.807 726.284 504.141 723.884C502.941 719.617 503.874 706.417 505.341 706.417C505.741 706.417 507.741 709.351 509.607 712.817C519.874 731.217 546.541 761.084 568.941 779.217C604.141 807.484 639.341 824.817 675.741 831.751C698.141 836.017 698.807 834.817 679.207 826.417C651.207 814.417 611.474 790.684 580.141 767.217C563.741 754.951 539.341 731.351 529.207 717.884C504.541 685.217 499.474 653.484 513.874 623.084L518.407 613.751L532.007 610.017C544.807 606.417 546.941 606.151 566.807 606.684C582.274 606.951 588.407 606.684 589.607 605.484C591.874 603.217 582.541 599.084 568.674 596.284C558.407 594.151 542.274 594.284 534.941 596.551L531.741 597.484L534.807 593.351C538.007 588.951 539.341 588.284 554.141 583.484C562.274 580.817 566.407 580.417 586.141 580.284C612.941 580.151 613.474 580.151 613.474 578.284C613.474 574.417 588.141 567.751 573.207 567.751H564.807L573.341 562.017L582.007 556.417H604.007C619.607 556.417 626.007 556.017 626.407 554.817C627.207 552.684 623.074 550.684 611.741 547.884L602.274 545.351L610.407 541.351C625.607 533.617 655.341 521.351 677.207 513.884C744.807 490.684 821.474 475.751 916.141 467.484C942.141 465.217 1031.07 465.217 1055.47 467.484C1156.67 476.951 1235.61 503.484 1296.01 548.417C1313.47 561.351 1331.34 578.417 1329.47 580.284C1328.67 581.084 1330.94 584.551 1336.94 590.684C1341.87 595.751 1345.61 600.151 1345.21 600.417C1344.94 600.684 1339.34 600.284 1332.67 599.484C1320.81 598.017 1316.14 598.417 1316.14 600.951C1316.14 603.084 1323.07 606.284 1338.14 610.951C1357.87 617.217 1363.34 620.817 1368.14 630.417C1370.41 634.817 1372.14 638.684 1372.14 638.951C1372.14 639.351 1369.07 637.484 1365.34 634.951C1354.67 627.884 1328.54 621.351 1318.67 623.351C1310.27 624.951 1316.01 628.951 1335.74 635.084C1345.87 638.284 1353.34 641.617 1359.07 645.484C1375.74 656.684 1379.74 660.284 1380.67 664.284C1381.07 666.417 1381.21 668.417 1380.94 668.817C1380.54 669.084 1377.74 667.351 1374.54 664.684C1366.94 658.551 1359.87 655.084 1349.34 652.417C1339.47 649.884 1320.01 649.084 1319.21 651.217C1318.54 653.217 1327.61 657.884 1337.34 660.417C1350.27 663.751 1360.81 669.084 1374.14 679.084C1387.47 689.084 1387.87 689.884 1388.01 706.417C1388.14 721.751 1383.61 733.751 1373.21 745.884C1349.74 773.217 1286.14 816.017 1238.81 836.417C1232.54 839.217 1208.01 847.884 1184.14 855.751C1122.41 876.284 1115.34 880.017 1154.81 871.084C1227.87 854.551 1263.07 841.884 1307.61 816.284C1338.67 798.551 1362.94 781.084 1378.01 765.751L1385.87 757.751L1385.07 766.417C1384.54 771.217 1383.74 786.017 1383.34 799.484L1382.41 823.884L1366.94 839.617C1353.61 853.084 1349.74 856.151 1338.81 861.884C1329.47 866.817 1326.01 869.351 1325.74 871.484C1325.34 874.017 1325.87 874.417 1329.87 874.417C1337.61 874.417 1351.21 869.484 1359.21 863.617C1363.47 860.684 1369.87 854.284 1373.61 849.351C1379.21 841.884 1380.14 841.084 1379.47 844.417C1377.47 853.351 1365.47 875.351 1357.61 884.684C1316.54 933.217 1226.41 969.351 1103.34 986.417L1081.74 989.484L1079.74 993.617C1078.67 996.017 1074.67 1001.88 1071.07 1006.82L1064.27 1015.75H1073.34C1078.27 1015.75 1085.07 1016.55 1088.27 1017.48C1093.07 1018.95 1096.94 1018.95 1109.47 1017.48C1156.27 1012.28 1200.54 1001.62 1240.14 986.151L1260.81 978.017L1288.14 975.084C1306.14 973.084 1319.61 970.951 1327.47 968.551C1341.47 964.417 1356.14 962.817 1362.94 964.817C1367.47 966.017 1368.01 965.884 1369.34 962.817C1371.47 958.151 1371.47 958.017 1363.87 958.951C1350.94 960.417 1295.87 963.884 1295.21 963.217C1294.81 962.817 1297.74 960.951 1301.61 958.951C1305.47 957.084 1313.87 952.151 1320.27 948.284L1331.87 941.084L1360.94 938.951L1390.14 936.817L1395.34 931.751L1400.54 926.551L1395.34 927.217C1385.21 928.284 1347.74 930.551 1347.34 930.017C1347.07 929.751 1351.61 924.951 1357.21 919.351L1367.61 909.084L1402.41 906.284C1436.41 903.617 1437.47 903.484 1451.61 898.284L1466.14 893.084L1458.14 893.751C1439.34 895.484 1376.94 899.617 1376.54 899.217C1376.14 898.817 1378.67 894.417 1387.47 880.684C1388.54 878.951 1394.67 878.151 1418.14 876.417C1434.27 875.217 1464.27 872.817 1484.81 871.084C1505.34 869.217 1523.07 867.751 1524.14 867.751C1525.21 867.751 1527.61 865.484 1529.34 862.817L1532.41 858.017L1523.34 858.951C1484.14 862.684 1395.07 868.551 1394.01 867.484C1393.34 866.684 1397.34 850.417 1398.67 848.817C1399.07 848.417 1421.07 846.417 1447.47 844.551C1536.94 838.017 1551.61 836.551 1556.81 832.951C1559.34 831.217 1560.81 829.484 1560.14 829.351C1559.34 829.084 1548.67 829.751 1536.41 830.951C1503.07 834.151 1410.27 841.084 1400.67 841.084C1399.61 841.084 1399.34 838.017 1399.87 831.351C1400.14 826.151 1400.54 821.617 1400.67 821.484C1400.81 821.351 1418.27 820.017 1439.47 818.417C1502.67 813.884 1598.67 805.484 1599.74 804.551C1600.01 804.284 1600.41 802.417 1600.94 800.284L1601.74 796.417L1575.21 799.217C1525.21 804.817 1425.07 813.084 1408.01 813.084H1401.47V803.351V793.617L1434.81 791.217C1473.34 788.551 1531.21 783.751 1571.74 779.751C1597.87 777.217 1600.27 777.217 1604.41 779.217L1608.94 781.351L1617.74 772.284L1626.54 763.217L1618.41 758.017C1574.67 729.751 1564.41 668.951 1599.34 645.351C1625.61 627.751 1657.87 636.017 1670.54 663.484C1677.07 677.884 1674.81 690.017 1663.74 698.817C1652.27 708.151 1639.87 700.551 1633.34 680.017L1631.07 672.417L1628.67 677.751C1625.34 685.351 1625.61 696.817 1629.34 702.817C1633.34 709.351 1642.01 716.817 1649.34 720.151C1657.47 723.751 1671.21 723.617 1682.81 719.751C1718.94 707.617 1736.94 669.351 1721.47 637.617C1716.94 628.284 1704.41 615.617 1693.61 609.617L1687.07 605.884L1691.07 601.217C1697.47 593.884 1701.47 584.151 1701.47 575.617C1701.47 569.484 1699.74 560.684 1698.01 558.684C1697.87 558.417 1692.14 562.551 1685.21 567.751C1671.07 578.551 1654.54 587.351 1631.47 596.417C1622.67 599.884 1612.54 604.284 1608.81 606.151C1573.74 623.484 1550.54 660.551 1550.27 699.751C1550.14 707.484 1550.54 715.351 1551.07 717.217C1552.01 720.551 1551.61 720.951 1542.81 724.951C1521.61 734.817 1498.14 738.951 1464.14 738.951C1438.67 738.951 1429.21 737.884 1413.74 732.684C1406.41 730.284 1402.54 727.484 1404.27 725.751C1404.54 725.484 1408.67 726.284 1413.47 727.484C1427.21 730.817 1453.87 730.417 1468.81 726.551C1486.41 722.017 1492.14 718.551 1485.34 716.417C1483.87 715.884 1474.41 715.884 1464.41 716.417C1443.87 717.484 1436.81 716.551 1419.21 710.151C1410.81 707.217 1408.14 705.617 1408.14 703.751C1408.14 701.484 1409.34 701.351 1423.87 702.017C1441.87 702.951 1456.14 701.751 1459.74 699.084C1462.01 697.351 1461.87 697.084 1457.47 695.351C1454.94 694.284 1446.54 692.684 1438.81 691.884C1416.67 689.751 1406.81 685.884 1406.81 679.617C1406.81 677.351 1407.87 677.084 1418.54 676.951C1431.87 676.684 1437.74 675.751 1438.41 673.484C1439.34 670.817 1433.87 668.951 1419.21 667.084C1411.47 666.017 1404.67 664.684 1404.14 664.151C1403.61 663.617 1401.61 658.284 1399.61 652.417C1395.21 639.617 1382.01 611.617 1374.94 600.417C1372.27 596.017 1369.47 591.751 1369.07 590.817C1367.61 588.551 1382.54 569.484 1394.41 558.417C1421.61 532.951 1477.07 504.284 1514.14 496.551C1531.87 492.817 1542.14 492.684 1563.74 495.751C1574.94 497.217 1586.94 498.417 1590.41 498.151L1596.81 497.751L1592.54 495.351C1584.14 490.817 1565.61 484.017 1555.21 481.617C1541.74 478.551 1515.07 478.551 1496.81 481.751C1469.87 486.417 1434.67 498.417 1412.14 510.684C1391.47 521.884 1364.14 542.417 1350.27 556.951C1346.27 561.084 1344.54 562.017 1343.21 560.951C1342.27 560.017 1341.47 558.817 1341.47 558.151C1341.47 555.751 1352.94 540.551 1360.54 532.817C1370.54 522.684 1378.27 517.617 1394.14 510.817C1413.74 502.151 1418.94 496.151 1405.07 497.884C1378.41 501.217 1350.01 515.884 1331.74 535.751C1325.34 542.551 1324.14 543.351 1322.14 541.884C1320.14 540.417 1320.67 539.351 1327.74 530.284C1335.74 520.284 1344.94 512.417 1356.54 505.884C1363.61 501.884 1372.14 494.817 1372.14 492.951C1372.14 489.617 1357.74 493.484 1342.81 501.084C1330.94 507.084 1323.61 512.284 1313.87 521.484L1305.74 529.217L1290.27 520.017C1255.74 499.217 1211.87 481.217 1167.87 469.751C1159.87 467.617 1153.47 465.351 1153.47 464.417C1153.47 461.084 1172.14 440.017 1182.81 431.351C1208.67 410.417 1240.41 391.351 1265.21 381.751C1284.81 374.284 1298.67 371.351 1315.47 371.217C1328.14 371.217 1332.14 371.751 1344.67 375.484C1359.07 379.751 1368.14 380.951 1368.14 378.551C1368.14 374.684 1348.54 364.551 1330.14 358.951C1319.21 355.617 1316.27 355.217 1297.47 355.351C1279.61 355.351 1275.07 355.751 1263.87 358.817C1245.61 363.617 1224.81 372.817 1204.67 384.817C1169.21 405.884 1146.14 424.951 1128.54 447.351C1120.27 458.017 1117.61 459.751 1113.61 457.217C1112.14 456.284 1113.07 453.751 1118.27 444.951C1127.47 429.351 1144.01 412.951 1158.81 404.817C1176.41 395.217 1181.21 389.484 1170.54 390.684C1162.94 391.617 1145.61 398.417 1134.94 404.684C1122.81 411.751 1104.01 430.151 1095.74 442.817L1088.81 453.351L1082.81 452.551C1067.87 450.417 1031.47 446.551 1018.41 445.617L1004.01 444.684L1004.81 439.217C1011.74 393.751 1059.34 345.084 1114.14 327.351C1134.94 320.551 1144.01 319.884 1165.74 323.351C1176.01 324.951 1181.47 325.217 1185.07 324.284C1203.61 319.751 1172.81 307.084 1139.47 305.484C1100.01 303.617 1060.54 315.751 1029.61 338.951C1025.74 342.017 1021.47 345.217 1020.14 346.151C1017.87 347.751 1018.01 347.351 1020.14 337.884C1025.87 314.151 1026.67 282.417 1022.41 261.484L1020.54 253.217L1026.94 259.751C1038.01 271.217 1040.01 267.617 1032.27 250.684C1024.94 234.684 1023.21 228.284 1021.61 211.351C1020.27 197.484 1018.67 191.751 1016.14 191.751C1014.01 191.751 1012.14 201.484 1012.14 213.751V225.751L1007.07 216.951C1004.14 212.151 1000.01 205.484 997.741 202.017L993.474 195.884L1004.01 191.884C1018.14 186.417 1031.47 182.951 1046.81 180.551C1061.07 178.284 1082.81 176.417 1082.81 177.351C1082.81 177.751 1081.61 181.351 1080.27 185.484C1076.14 197.217 1074.41 213.084 1075.21 230.284C1075.87 246.684 1077.47 253.084 1080.81 253.084C1083.87 253.084 1087.61 244.284 1092.14 226.417C1096.94 207.217 1101.47 196.817 1109.87 185.484C1121.21 170.284 1139.07 159.084 1158.81 154.951C1173.74 151.751 1198.41 152.951 1214.14 157.751C1238.27 164.817 1267.74 181.884 1287.74 200.417L1297.47 209.217L1293.61 216.151C1284.14 233.084 1275.87 266.284 1275.61 288.684C1275.47 302.551 1276.94 305.884 1281.47 301.751C1285.61 298.017 1290.14 289.617 1297.47 271.617C1306.14 250.684 1314.27 237.484 1326.14 225.617C1337.21 214.551 1350.27 206.417 1364.14 202.151C1377.21 198.151 1402.54 197.884 1416.67 201.617C1455.34 211.884 1493.34 241.884 1523.34 285.484L1531.21 296.817L1525.34 303.617C1511.74 319.351 1503.47 337.751 1498.27 364.017C1492.54 392.684 1492.14 412.417 1497.21 411.484C1500.14 410.951 1506.94 398.151 1512.27 383.084C1527.21 341.084 1549.74 317.484 1580.67 311.617C1625.87 303.084 1676.94 339.084 1715.61 406.817C1732.41 436.017 1735.74 437.217 1734.27 413.884C1732.27 378.817 1720.01 352.017 1693.47 324.551C1654.01 283.751 1602.27 266.951 1560.14 281.084C1555.47 282.684 1551.34 283.484 1550.94 282.817C1550.41 282.284 1548.67 277.484 1547.07 272.417C1536.94 239.751 1503.07 203.351 1464.27 183.351C1424.94 162.951 1386.01 157.617 1352.27 168.017C1339.87 171.751 1323.87 180.417 1315.87 187.617C1311.87 191.217 1308.81 193.084 1308.54 192.151C1306.67 186.817 1296.54 173.751 1288.14 166.017C1268.67 148.017 1239.61 134.017 1210.27 128.417C1199.47 126.284 1173.07 124.817 1166.81 125.884ZM1567.74 751.084C1573.47 757.351 1578.27 762.951 1578.54 763.617C1578.94 764.817 1577.34 765.084 1552.14 769.084C1525.34 773.217 1425.74 782.417 1407.21 782.417H1401.47V769.351V756.417L1431.87 756.284C1473.07 756.017 1509.07 751.884 1540.14 743.751C1547.87 741.751 1554.81 740.017 1555.74 739.884C1556.54 739.884 1562.01 744.817 1567.74 751.084ZM493.207 772.017C493.474 779.884 493.207 782.417 491.874 782.417C486.941 782.551 432.541 778.151 430.807 777.484C429.741 777.084 437.207 774.551 447.474 771.617C457.741 768.817 469.741 765.217 474.141 763.884C478.541 762.417 484.541 761.351 487.474 761.484L492.807 761.751L493.207 772.017ZM451.474 785.751C472.807 787.617 490.941 789.084 491.874 789.084C492.941 789.084 493.474 792.017 493.474 799.217V809.351L481.207 808.417C433.741 804.951 339.607 795.884 340.541 794.817C340.807 794.551 351.207 792.551 363.607 790.417C376.007 788.284 389.741 785.617 394.141 784.551C405.074 781.884 407.341 782.017 451.474 785.751Z" fill="#AE2626"/>
<path d="M732.407 139.884C726.007 143.084 720.674 150.017 719.341 156.817L718.541 161.084L724.141 159.084C732.007 156.284 744.941 156.55 755.207 159.75C777.607 166.684 803.474 191.75 816.141 218.55C827.207 242.284 828.674 270.417 818.807 270.417C817.341 270.417 802.941 261.617 786.807 250.95L757.474 231.35L765.741 228.417C780.141 223.35 800.141 212.15 800.141 209.084C800.141 206.417 789.207 207.884 776.541 212.017C764.941 215.884 761.741 216.284 748.141 216.417C731.474 216.417 728.941 215.084 738.807 211.617C754.807 206.017 773.741 194.15 771.074 191.484C769.474 189.884 758.007 192.15 745.074 196.684C731.474 201.35 700.141 202.817 700.141 198.684C700.141 198.15 703.874 196.284 708.541 194.55C725.474 188.017 740.541 178.284 737.607 175.35C736.274 174.017 730.407 175.217 706.141 182.284C692.007 186.284 672.941 186.017 660.807 181.617C606.807 162.15 574.807 163.35 546.541 185.884C532.674 196.817 517.074 220.684 509.074 243.217C505.874 252.017 505.741 254.417 508.141 254.417C508.674 254.417 513.341 248.817 518.674 241.884C530.674 226.15 544.541 212.95 554.541 207.884C569.741 200.15 588.941 198.15 610.141 201.75C644.407 207.75 680.807 226.95 743.474 271.884C774.007 293.884 792.541 306.017 802.007 310.55C812.941 315.75 826.407 316.017 836.007 311.217C849.074 304.55 858.941 289.217 860.941 272.55C862.007 263.484 858.674 246.417 853.207 233.484C841.474 204.95 810.274 167.484 784.407 150.284C771.074 141.617 761.741 138.15 748.807 137.484C739.741 136.95 737.341 137.35 732.407 139.884Z" fill="#AE2626"/>
<path d="M1171.07 175.351C1166.94 176.951 1163.61 189.084 1167.21 189.084C1170.14 189.084 1180.14 182.017 1180.94 179.217C1182.14 175.351 1176.54 173.084 1171.07 175.351Z" fill="#AE2626"/>
<path d="M1200.14 185.084C1196.94 188.284 1195.34 194.15 1197.21 196.017C1198.81 197.617 1203.61 195.084 1209.74 189.35C1212.54 186.817 1213.07 185.484 1212.01 184.15C1209.74 181.617 1203.21 182.017 1200.14 185.084Z" fill="#AE2626"/>
<path d="M1137.74 193.884C1135.61 194.951 1132.14 201.617 1132.14 205.084C1132.14 208.951 1135.07 208.417 1141.74 203.351C1148.67 198.017 1149.47 193.884 1143.47 193.484C1141.34 193.351 1138.67 193.617 1137.74 193.884Z" fill="#AE2626"/>
<path d="M1230.27 196.017C1229.07 197.617 1228.14 200.951 1228.14 203.351V207.751L1233.21 205.217C1239.21 202.151 1244.67 196.417 1243.47 194.551C1243.07 193.751 1240.27 193.084 1237.47 193.084C1233.61 193.084 1231.74 193.884 1230.27 196.017Z" fill="#AE2626"/>
<path d="M1037.34 204.017C1036.54 207.351 1036.14 216.551 1036.41 226.417C1036.81 241.884 1037.07 243.751 1040.94 251.884C1045.47 261.351 1056.14 273.751 1059.07 272.817C1061.74 271.751 1060.54 265.617 1055.47 255.751C1049.47 243.751 1047.07 234.951 1045.47 218.951C1043.61 198.684 1040.41 192.817 1037.34 204.017Z" fill="#AE2626"/>
<path d="M1058.67 200.684C1057.21 202.284 1056.81 207.884 1056.81 222.951C1056.81 242.684 1056.94 243.217 1060.94 251.884C1067.47 265.617 1081.47 278.551 1081.47 270.817C1081.47 269.617 1078.81 262.817 1075.47 255.617C1069.21 242.417 1065.47 228.684 1065.47 218.817C1065.47 212.151 1063.07 200.017 1061.47 199.084C1060.94 198.684 1059.61 199.484 1058.67 200.684Z" fill="#AE2626"/>
<path d="M1164.41 203.884C1160.94 205.217 1157.07 213.217 1158.27 216.284C1158.94 218.151 1159.74 218.017 1164.27 215.484C1170.94 211.751 1175.74 206.817 1174.01 205.217C1171.87 203.217 1167.61 202.551 1164.41 203.884Z" fill="#AE2626"/>
<path d="M1199.74 208.284C1196.94 210.417 1194.67 217.35 1196.14 219.75C1196.94 220.95 1198.01 220.95 1200.94 219.35C1206.41 216.55 1212.41 210.684 1211.74 208.684C1211.07 206.417 1202.54 206.017 1199.74 208.284Z" fill="#AE2626"/>
<path d="M1232.14 219.084C1225.34 228.951 1218.67 244.284 1217.07 253.751C1215.87 261.084 1216.01 264.417 1217.74 273.351C1220.14 284.551 1223.47 290.284 1226.01 287.751C1226.81 286.951 1227.87 277.884 1228.27 267.351C1229.07 249.884 1229.47 247.351 1234.01 235.217C1238.67 222.551 1240.14 213.084 1237.47 213.084C1236.81 213.084 1234.41 215.751 1232.14 219.084Z" fill="#AE2626"/>
<path d="M1381.74 218.817C1378.94 221.884 1377.61 230.417 1379.87 230.417C1380.54 230.417 1383.74 228.551 1387.07 226.417C1396.27 220.284 1397.07 215.751 1388.94 215.751C1386.14 215.751 1383.61 216.817 1381.74 218.817Z" fill="#AE2626"/>
<path d="M1416.14 224.017C1411.74 225.617 1409.61 229.084 1409.47 234.151V238.417L1414.54 235.884C1420.54 232.817 1425.47 228.284 1425.47 225.884C1425.47 223.617 1420.14 222.551 1416.14 224.017Z" fill="#AE2626"/>
<path d="M546.407 231.884C540.807 234.817 535.34 242.417 534.007 248.951C533.207 253.084 533.34 253.217 535.607 252.017C540.673 249.351 552.673 248.017 560.807 249.217C571.073 250.817 587.74 259.084 598.54 267.884C616.007 282.017 632.007 306.817 637.473 328.284C642.407 347.751 640.273 363.617 632.94 362.151C629.473 361.351 574.14 324.684 574.14 322.951C574.007 322.284 578.007 320.151 582.807 318.284C595.873 313.084 610.807 303.884 610.807 300.817C610.807 298.551 600.14 299.884 588.673 303.751C570.94 309.751 552.273 311.217 545.473 307.084C544.54 306.551 548.14 304.417 554.407 301.884C571.607 294.951 584.14 286.817 582.273 283.884C580.807 281.751 573.473 282.951 558.14 288.151C543.207 293.084 522.94 294.684 516.673 291.351L512.807 289.217L517.473 287.617C524.94 284.951 541.74 276.151 546.007 272.684C551.073 268.551 549.607 265.884 542.94 267.084C540.273 267.484 532.407 269.751 525.473 272.017C516.007 275.084 509.34 276.284 499.34 276.817C486.54 277.351 485.073 277.217 475.207 273.351C451.74 264.417 436.54 260.817 418.807 260.151C399.873 259.351 390.407 261.084 376.807 267.751C358.807 276.551 342.807 294.284 331.473 317.484C317.207 346.817 318.007 353.884 333.34 333.884C345.607 317.617 360.407 303.751 370.007 299.217C402.54 283.884 447.607 292.551 500.007 324.284C516.407 334.284 536.407 347.751 562.14 366.151C595.073 389.884 614.273 402.151 621.74 404.417C637.74 409.084 651.873 405.484 662.54 393.884C679.607 375.351 680.273 351.217 664.94 319.084C655.34 299.217 643.873 283.617 624.807 264.284C599.607 238.684 582.007 228.951 560.94 229.084C554.14 229.217 550.007 229.884 546.407 231.884Z" fill="#AE2626"/>
<path d="M1117.74 230.017C1115.61 230.817 1112.14 237.617 1112.14 241.084C1112.14 245.751 1117.34 243.751 1125.74 236.017C1128.54 233.484 1129.07 232.151 1128.01 230.817C1126.54 229.084 1121.07 228.684 1117.74 230.017Z" fill="#AE2626"/>
<path d="M1252.27 233.751C1245.87 241.084 1238.01 258.284 1236.01 269.084C1234.81 275.884 1234.81 280.551 1235.74 286.684C1237.47 297.217 1240.67 305.084 1243.21 305.084C1246.01 305.084 1246.81 300.817 1246.81 286.151C1246.81 270.951 1248.41 262.684 1253.74 249.217C1256.27 242.684 1257.47 237.484 1257.21 234.017L1256.81 228.551L1252.27 233.751Z" fill="#AE2626"/>
<path d="M1445.47 234.817C1442.27 236.417 1438.67 245.351 1440.54 247.217C1442.67 249.484 1456.14 240.151 1456.14 236.417C1456.14 233.084 1450.67 232.151 1445.47 234.817Z" fill="#AE2626"/>
<path d="M1348.14 237.084C1346.54 238.684 1345.47 241.484 1345.47 244.417C1345.47 249.617 1346.54 249.617 1355.07 244.017C1363.07 238.817 1363.34 234.417 1355.34 234.417C1352.54 234.417 1349.74 235.484 1348.14 237.084Z" fill="#AE2626"/>
<path d="M1270.14 242.684C1265.34 248.284 1258.14 262.817 1255.47 272.417C1251.47 285.884 1255.21 313.084 1260.81 313.084C1263.87 313.084 1264.27 310.817 1264.81 293.884C1265.07 278.817 1265.47 276.417 1270.67 261.617C1278.14 239.884 1278.01 233.351 1270.14 242.684Z" fill="#AE2626"/>
<path d="M1374.14 247.084C1370.81 250.417 1369.47 258.417 1372.27 258.417C1376.14 258.417 1386.81 250.017 1386.81 246.951C1386.81 246.151 1385.87 244.951 1384.67 244.551C1380.67 242.951 1377.34 243.751 1374.14 247.084Z" fill="#AE2626"/>
<path d="M1470.54 246.417C1468.01 248.017 1464.81 256.417 1466.14 258.417C1467.21 260.151 1475.74 255.751 1480.01 251.351C1481.61 249.484 1482.67 247.351 1482.14 246.551C1481.07 244.684 1473.61 244.684 1470.54 246.417Z" fill="#AE2626"/>
<path d="M1410.94 251.217C1408.27 254.684 1407.07 262.417 1409.21 262.417C1409.74 262.417 1413.34 260.284 1417.21 257.751C1426.01 251.751 1426.67 247.751 1418.94 247.751C1414.81 247.751 1413.07 248.551 1410.94 251.217Z" fill="#AE2626"/>
<path d="M1327.74 265.084C1324.01 268.017 1322.01 274.151 1324.01 276.151C1325.61 277.751 1336.81 271.484 1338.67 267.884C1341.61 262.551 1333.61 260.417 1327.74 265.084Z" fill="#AE2626"/>
<path d="M1431.87 298.151C1422.41 308.417 1414.67 328.284 1414.54 342.417C1414.41 357.084 1420.01 373.617 1423.87 369.884C1424.41 369.351 1425.21 360.684 1425.61 350.684C1426.41 333.884 1426.81 331.084 1431.87 316.151C1434.94 307.217 1437.47 298.951 1437.47 297.884C1437.47 294.284 1435.34 294.417 1431.87 298.151Z" fill="#AE2626"/>
<path d="M1448.94 316.017C1443.34 323.484 1434.94 342.684 1433.61 351.351C1431.47 364.817 1436.01 386.417 1440.94 386.417C1443.47 386.417 1444.14 383.084 1444.14 369.884C1444.14 354.684 1445.87 345.084 1450.94 331.884C1456.01 318.684 1457.21 311.751 1454.41 311.751C1453.21 311.751 1450.81 313.751 1448.94 316.017Z" fill="#AE2626"/>
<path d="M1466.67 325.351C1460.67 333.751 1454.01 348.684 1452.14 357.751C1449.61 370.017 1452.14 387.617 1457.21 393.484C1460.94 397.617 1462.14 393.617 1462.94 374.017C1463.74 356.684 1464.14 354.017 1468.67 341.884C1473.34 329.084 1474.81 319.751 1472.14 319.751C1471.47 319.751 1468.94 322.284 1466.67 325.351Z" fill="#AE2626"/>
<path d="M368.94 335.084C360.273 338.151 353.607 345.884 351.473 355.351L350.54 359.751L355.607 357.617C376.673 348.817 402.94 356.684 426.14 378.684C444.54 396.151 455.873 415.351 460.807 437.484C464.14 452.684 462.273 462.417 456.007 462.417C454.673 462.417 440.807 454.951 425.207 445.884C409.607 436.817 394.54 428.284 391.873 426.951C389.073 425.617 386.807 424.151 386.807 423.617C386.807 423.084 388.807 422.017 391.207 421.217C400.54 418.151 422.807 402.817 422.807 399.484C422.807 396.951 413.74 398.817 401.74 403.617C386.94 409.484 383.873 410.284 372.807 411.751C365.473 412.551 358.807 411.351 358.807 409.217C358.807 408.684 362.407 406.551 366.94 404.417C377.607 399.351 393.473 388.151 393.473 385.751C393.473 382.284 387.34 383.484 371.34 389.751C353.34 396.951 337.34 399.751 330.94 397.084C328.673 396.151 326.807 395.084 326.94 394.551C326.94 394.151 330.407 392.151 334.54 390.151C344.007 385.751 356.94 376.551 358.807 373.084C360.14 370.684 359.74 370.417 356.007 370.417C353.74 370.417 344.94 373.217 336.54 376.551C326.54 380.417 317.34 383.084 310.14 384.017C299.873 385.484 298.273 385.351 286.673 382.017C267.207 376.684 252.94 374.417 238.94 374.417C213.74 374.417 196.673 381.484 179.473 398.951C166.807 411.751 158.273 425.617 150.94 445.084C141.207 470.817 143.34 473.884 156.807 453.484C179.34 419.484 199.473 407.351 233.473 407.351C254.673 407.351 274.94 412.284 302.807 424.417C322.14 432.684 338.673 442.284 390.14 474.284C435.34 502.551 441.607 505.617 454.807 506.151C468.007 506.817 476.407 503.484 484.673 494.284C506.54 470.017 501.74 435.484 470.94 394.817C461.073 381.884 439.74 360.684 427.473 351.617C406.54 336.284 383.74 329.751 368.94 335.084Z" fill="#AE2626"/>
<path d="M1115.74 336.284C1112.67 338.684 1110.01 346.151 1111.87 348.017C1113.47 349.617 1119.21 346.817 1124.54 341.884C1127.74 338.951 1128.14 338.017 1126.81 336.417C1124.81 334.017 1118.94 333.884 1115.74 336.284Z" fill="#AE2626"/>
<path d="M1584.81 337.751C1581.21 341.217 1580.14 349.084 1583.21 349.084C1585.47 348.951 1594.94 342.284 1596.67 339.351C1597.74 337.617 1597.74 336.684 1596.14 335.751C1592.67 333.484 1588.14 334.284 1584.81 337.751Z" fill="#AE2626"/>
<path d="M1614.94 345.884C1612.14 349.351 1611.07 357.084 1613.34 357.084C1614.01 357.084 1617.47 355.084 1620.94 352.684C1629.21 347.351 1629.87 343.217 1622.67 342.684C1618.67 342.284 1617.21 342.951 1614.94 345.884Z" fill="#AE2626"/>
<path d="M1646.67 355.617C1642.41 359.884 1641.34 366.417 1644.94 366.417C1648.41 366.417 1658.81 358.551 1658.81 355.884C1658.81 353.751 1655.47 351.884 1651.74 351.751C1651.07 351.751 1648.81 353.484 1646.67 355.617Z" fill="#AE2626"/>
<path d="M1082.41 354.684C1078.27 357.884 1076.54 367.75 1080.14 367.75C1081.47 367.75 1091.07 360.684 1093.21 358.017C1094.27 356.817 1094.67 355.217 1094.14 354.417C1092.94 352.55 1085.07 352.684 1082.41 354.684Z" fill="#AE2626"/>
<path d="M1550.94 356.55C1548.14 360.017 1547.07 367.75 1549.34 367.75C1550.01 367.75 1553.47 365.75 1556.94 363.35C1565.21 358.017 1565.87 353.884 1558.67 353.35C1554.67 352.95 1553.21 353.617 1550.94 356.55Z" fill="#AE2626"/>
<path d="M1109.87 363.751C1106.27 365.217 1104.14 369.084 1104.14 374.417V378.551L1109.47 375.617C1112.41 373.884 1116.14 371.217 1117.74 369.351C1120.81 366.284 1120.81 366.151 1118.27 364.284C1115.34 362.151 1114.01 362.151 1109.87 363.751Z" fill="#AE2626"/>
<path d="M1577.34 366.284C1573.07 370.551 1572.01 377.084 1575.61 377.084C1579.07 377.084 1589.47 369.217 1589.47 366.551C1589.47 364.417 1586.14 362.551 1582.41 362.417C1581.74 362.417 1579.47 364.151 1577.34 366.284Z" fill="#AE2626"/>
<path d="M1613.61 369.884C1610.81 373.351 1609.74 381.084 1612.01 381.084C1612.67 381.084 1616.14 379.084 1619.61 376.684C1627.87 371.351 1628.54 367.217 1621.34 366.684C1617.34 366.284 1615.87 366.951 1613.61 369.884Z" fill="#AE2626"/>
<path d="M1664.41 377.484C1661.61 380.551 1660.27 389.084 1662.54 389.084C1663.21 389.084 1666.41 387.217 1669.74 385.084C1678.94 378.951 1679.74 374.417 1671.61 374.417C1668.81 374.417 1666.27 375.484 1664.41 377.484Z" fill="#AE2626"/>
<path d="M1062.01 382.684C1057.21 384.95 1053.87 395.75 1057.87 395.75C1060.81 395.75 1070.81 388.684 1071.61 385.884C1072.94 381.617 1067.74 379.884 1062.01 382.684Z" fill="#AE2626"/>
<path d="M1530.27 383.884C1527.74 385.884 1526.81 387.884 1526.81 391.217C1526.81 396.817 1528.67 396.951 1535.87 391.884C1542.81 386.684 1543.74 385.084 1540.81 382.817C1537.34 380.417 1534.41 380.684 1530.27 383.884Z" fill="#AE2626"/>
<path d="M1287.61 390.684C1285.61 392.417 1283.74 395.751 1283.34 398.017C1282.54 401.751 1282.81 402.417 1284.94 402.417C1288.27 402.417 1296.94 396.551 1298.81 393.084C1300.01 390.817 1299.74 390.151 1296.81 389.084C1292.01 387.217 1291.47 387.351 1287.61 390.684Z" fill="#AE2626"/>
<path d="M1589.34 396.017C1580.27 408.284 1573.47 427.217 1573.47 440.151C1573.47 448.151 1577.07 461.217 1580.14 464.284C1582.67 466.817 1582.67 466.817 1584.14 463.217C1584.81 461.217 1585.47 453.217 1585.47 445.351C1585.47 430.551 1586.81 424.017 1592.67 408.551C1596.14 399.351 1597.21 390.417 1594.81 390.417C1594.14 390.417 1591.61 392.951 1589.34 396.017Z" fill="#AE2626"/>
<path d="M1254.41 409.084C1250.67 412.017 1248.67 418.151 1250.67 420.151C1252.27 421.751 1263.47 415.484 1265.34 411.884C1268.27 406.551 1260.27 404.417 1254.41 409.084Z" fill="#AE2626"/>
<path d="M1609.07 410.684C1598.41 424.817 1591.34 445.884 1592.54 459.751C1593.34 468.817 1596.81 480.551 1599.07 481.884C1602.27 483.884 1603.47 478.951 1604.27 460.684C1605.07 443.217 1605.47 440.684 1610.01 428.551C1614.67 415.884 1616.14 406.417 1613.61 406.417C1612.81 406.417 1610.81 408.417 1609.07 410.684Z" fill="#AE2626"/>
<path d="M1624.94 422.684C1613.47 440.684 1610.14 451.484 1611.07 467.884C1611.87 480.15 1615.21 489.75 1618.81 489.75C1620.41 489.75 1620.94 486.417 1621.61 471.617C1622.41 455.084 1622.94 452.15 1628.01 437.75C1630.94 428.95 1633.47 420.55 1633.47 418.817C1633.47 413.617 1629.74 415.35 1624.94 422.684Z" fill="#AE2626"/>
<path d="M1278.81 419.75C1276.14 422.417 1274.94 431.75 1277.21 431.75C1277.87 431.75 1280.81 430.017 1283.61 428.017C1293.61 420.684 1294.41 417.084 1286.01 417.084C1283.21 417.084 1280.41 418.15 1278.81 419.75Z" fill="#AE2626"/>
<path d="M1230.94 439.217C1228.14 442.684 1227.07 450.417 1229.34 450.417C1230.01 450.417 1233.47 448.417 1236.94 446.017C1245.21 440.684 1245.87 436.551 1238.67 436.017C1234.67 435.617 1233.21 436.284 1230.94 439.217Z" fill="#AE2626"/>
<path d="M1680.01 441.884C1658.27 445.75 1645.47 453.617 1643.47 464.15C1642.94 466.95 1642.81 469.484 1643.21 469.884C1643.61 470.284 1647.21 467.884 1651.21 464.684C1660.67 456.95 1666.27 455.217 1680.14 455.217C1712.01 455.217 1746.81 474.684 1769.47 505.217C1823.47 577.75 1814.81 703.217 1752.54 750.151L1742.94 757.351L1751.21 763.484C1775.61 781.617 1827.61 840.951 1846.81 872.284C1862.94 898.684 1865.61 921.351 1854.27 936.151C1851.87 939.217 1842.81 952.017 1833.87 964.551C1825.07 976.951 1814.41 990.284 1810.27 994.017C1802.01 1001.62 1791.34 1006.42 1782.81 1006.42H1777.47V1012.68C1777.47 1020.02 1772.27 1032.02 1765.61 1040.42C1763.21 1043.35 1751.87 1055.35 1740.41 1066.95C1726.01 1081.62 1717.61 1088.95 1713.61 1090.82C1706.41 1094.02 1693.61 1094.28 1686.67 1091.22L1681.87 1089.22L1680.27 1094.15C1678.14 1101.22 1670.67 1110.82 1661.87 1117.75C1646.81 1129.75 1593.74 1159.35 1566.54 1170.82C1527.21 1187.62 1492.14 1193.08 1466.14 1186.42C1460.41 1184.95 1455.34 1183.75 1454.81 1183.75C1454.27 1183.75 1453.47 1188.42 1453.07 1194.02C1452.01 1211.08 1445.47 1224.28 1435.07 1231.08C1432.41 1232.82 1418.94 1237.48 1405.21 1241.62C1362.67 1254.28 1356.81 1255.08 1342.41 1250.28C1336.01 1248.15 1334.14 1247.88 1333.61 1249.22C1332.27 1253.22 1321.07 1263.48 1314.27 1266.95C1302.67 1272.82 1250.41 1287.75 1241.61 1287.75C1226.81 1287.75 1215.61 1279.35 1207.21 1262.15C1201.07 1249.62 1190.41 1214.68 1172.14 1147.75C1160.27 1104.68 1157.87 1094.42 1154.27 1072.15C1150.94 1051.88 1151.07 1045.35 1154.94 1038.02C1156.41 1035.48 1156.14 1035.35 1150.01 1036.15C1146.41 1036.68 1136.67 1037.35 1128.41 1037.88C1118.14 1038.55 1113.61 1039.22 1114.01 1040.28C1126.41 1068.02 1130.01 1088.95 1132.27 1149.35C1134.14 1196.15 1133.21 1239.35 1130.14 1257.08C1126.27 1278.28 1120.01 1292.02 1109.21 1301.88C1098.81 1311.62 1088.67 1314.95 1066.01 1316.42C1047.87 1317.62 1033.07 1315.62 1021.74 1310.42L1013.47 1306.55L1004.41 1310.55C985.607 1319.08 958.94 1322.15 938.007 1318.28C918.14 1314.68 897.74 1302.82 886.407 1288.28L880.807 1281.08L878.94 1286.68C876.007 1295.62 867.34 1303.08 856.007 1306.55C847.34 1309.22 844.54 1309.35 826.274 1308.68C792.807 1307.35 739.474 1298.15 710.14 1288.42C671.207 1275.75 644.54 1256.55 631.74 1232.02L626.674 1222.28L620.407 1227.88C601.74 1244.15 573.207 1253.08 538.94 1253.08C496.94 1253.08 462.007 1239.75 443.474 1216.68C440.674 1213.22 437.74 1210.55 436.94 1210.82C436.274 1211.08 433.207 1218.82 430.274 1227.88C423.074 1250.15 421.874 1251.75 413.607 1251.75C401.34 1251.75 375.74 1241.62 361.34 1231.08C353.74 1225.48 345.074 1216.15 342.14 1210.42C338.274 1202.95 338.007 1193.35 341.474 1185.35C343.207 1181.48 344.274 1178.15 344.007 1178.02C343.74 1177.75 337.207 1173.62 329.474 1168.82C306.94 1154.55 298.674 1144.02 297.74 1128.02C297.207 1120.28 296.94 1119.75 294.94 1121.62C291.607 1124.68 281.874 1127.75 275.607 1127.75C265.474 1127.62 253.34 1122.02 224.407 1103.88C199.874 1088.68 195.34 1085.22 192.007 1080.02C187.874 1073.35 185.474 1066.55 185.474 1060.82C185.474 1057.35 185.34 1057.35 181.34 1058.68C175.34 1060.82 162.94 1059.35 155.474 1055.75C136.674 1046.68 75.7402 975.217 50.6736 932.817C27.8736 894.417 18.0069 861.351 21.4736 835.484C24.1402 816.151 30.8069 803.617 46.0069 789.351C62.8069 773.751 82.8069 766.951 109.207 768.151L124.14 768.817V759.084C124.14 753.217 125.207 746.017 126.674 741.084L129.207 732.951L115.474 719.351C88.9402 693.084 73.7402 662.417 69.3402 626.284C66.5402 604.017 71.7402 579.35 82.9402 560.284C89.7402 548.684 106.94 532.017 118.14 526.15C140.14 514.817 160.274 513.35 178.274 521.884C192.407 528.55 205.874 546.95 209.607 564.684C211.474 574.017 209.607 586.15 204.94 595.617C200.807 603.75 190.407 613.35 182.407 616.417C161.207 624.55 134.274 602.684 145.207 586.15C149.74 579.35 160.274 573.084 167.34 573.084C172.94 573.084 172.54 570.684 166.407 567.217C155.74 560.95 143.074 563.217 134.674 572.817C112.807 597.75 123.474 646.417 156.007 670.684C182.407 690.151 210.007 684.417 228.94 655.351C232.407 650.017 235.474 645.484 235.607 645.217C235.874 644.951 238.807 647.751 242.14 651.484C245.607 655.351 251.34 659.751 255.474 661.884C261.74 664.817 264.14 665.351 271.474 664.817C276.14 664.551 280.54 663.884 281.074 663.351C281.607 662.817 280.94 660.684 279.74 658.684C273.34 648.817 267.874 635.884 262.14 617.75C245.074 562.817 243.074 558.284 229.74 540.417C202.407 503.617 167.474 485.35 134.407 490.15C92.6736 496.417 62.2736 530.95 50.6736 585.35C46.8069 603.217 46.5402 633.751 50.0069 649.751C56.8069 680.551 71.6069 708.551 94.0069 732.684C99.6069 738.551 104.14 744.017 104.14 744.817C104.14 745.484 99.2069 746.417 93.0736 746.817C71.6069 748.551 51.4736 756.684 35.2069 770.284C-12.3931 810.284 -11.7264 872.951 37.2069 951.351C61.6069 990.417 114.807 1053.75 135.74 1068.68C144.007 1074.55 159.207 1080.95 165.074 1081.08C167.207 1081.08 168.94 1082.68 170.94 1086.55C176.407 1097.48 185.074 1104.68 214.007 1122.68C229.474 1132.28 245.207 1141.48 248.807 1143.08C256.807 1146.68 267.474 1149.08 275.207 1149.08C280.54 1149.08 280.94 1149.48 284.007 1155.22C288.14 1162.95 300.007 1175.08 310.007 1181.88L317.74 1187.22L318.007 1197.08C318.407 1209.62 321.874 1218.82 330.807 1230.55C345.474 1250.15 379.074 1268.82 407.074 1273.22C423.474 1275.75 435.074 1269.75 442.807 1254.68C444.407 1251.62 446.007 1249.08 446.407 1249.08C446.807 1249.08 448.674 1250.15 450.54 1251.62C462.674 1260.15 486.407 1268.82 507.474 1272.42C525.074 1275.48 554.14 1275.48 570.14 1272.55C584.94 1269.75 603.874 1263.62 613.074 1258.55L619.874 1254.82L627.874 1263.75C649.207 1287.48 684.007 1305.48 729.474 1316.42C744.94 1320.02 785.34 1326.68 806.54 1329.22C814.14 1330.02 828.274 1330.42 837.874 1330.15C857.207 1329.48 868.274 1326.68 878.14 1319.88L883.474 1316.28L892.807 1322.55C904.274 1330.28 918.54 1336.15 933.34 1339.08C942.007 1340.95 948.94 1341.22 964.674 1340.68C984.807 1340.02 993.607 1338.42 1007.34 1332.55C1012.27 1330.55 1012.94 1330.55 1019.47 1332.95C1035.47 1338.95 1072.14 1340.02 1091.47 1335.08C1112.81 1329.62 1130.54 1315.22 1140.01 1295.62C1150.81 1273.08 1154.01 1251.35 1154.14 1200.15C1154.14 1180.28 1154.27 1164.15 1154.54 1164.28C1154.67 1164.55 1159.34 1180.42 1164.81 1199.75C1176.67 1241.08 1182.67 1259.75 1188.14 1271.08C1200.27 1296.55 1218.27 1309.35 1242.14 1309.35C1251.47 1309.35 1256.54 1308.28 1282.81 1300.42C1315.07 1290.82 1325.34 1286.68 1335.34 1278.95L1341.61 1274.15L1357.87 1273.88C1373.61 1273.48 1375.07 1273.22 1404.14 1264.55C1420.67 1259.62 1437.47 1254.02 1441.47 1252.15C1454.41 1245.88 1465.47 1232.15 1470.14 1216.42L1471.74 1211.08L1493.61 1210.28C1522.81 1209.22 1542.67 1204.42 1574.81 1190.82C1598.14 1180.95 1650.41 1152.55 1666.81 1140.82C1674.54 1135.35 1692.14 1118.68 1692.14 1116.82C1692.14 1116.28 1694.41 1115.75 1697.34 1115.75C1706.14 1115.75 1716.41 1113.22 1725.07 1108.95C1732.01 1105.62 1737.34 1100.82 1757.74 1079.62C1782.67 1053.75 1790.27 1044.02 1794.27 1033.22C1796.27 1027.48 1797.21 1026.68 1806.67 1022.15C1822.27 1014.68 1829.47 1007.08 1853.61 973.351C1879.07 938.017 1881.87 932.017 1882.01 915.751C1882.14 888.151 1870.27 864.417 1834.41 819.751C1825.34 808.417 1811.21 791.884 1803.21 783.084C1795.21 774.284 1787.07 764.684 1785.07 761.884L1781.61 756.551L1789.47 748.551C1801.07 736.684 1807.47 727.484 1814.81 712.417C1826.27 689.084 1830.81 666.817 1830.81 634.417C1830.81 582.284 1815.61 528.284 1790.01 489.617C1786.01 483.484 1777.74 473.884 1770.81 467.217C1761.07 458.017 1756.14 454.55 1746.41 449.884C1726.27 440.15 1704.14 437.484 1680.01 441.884Z" fill="#AE2626"/>
<path d="M714.807 517.084C707.074 517.617 700.14 518.15 699.207 518.284C697.34 518.417 693.474 522.15 693.474 523.884C693.474 524.55 697.074 526.817 701.474 529.084C709.207 532.95 710.54 533.217 734.54 534.417C786.807 537.217 842.54 544.55 892.14 555.217C914.674 560.017 914.274 559.75 901.474 563.35C895.207 565.084 880.407 569.484 868.54 573.084L846.94 579.75L833.874 576.95C815.34 573.217 777.34 566.95 755.474 564.15C728.807 560.817 660.007 560.684 656.674 564.017C653.34 567.217 655.074 569.75 663.34 573.75C670.007 577.084 672.674 577.484 694.407 578.55C724.674 580.017 756.007 583.084 784.807 587.217C797.207 588.95 808.007 590.417 808.674 590.417C811.34 590.417 807.474 592.817 802.14 594.417C799.207 595.35 785.34 600.284 771.207 605.35L745.607 614.55L723.874 611.75C690.007 607.484 655.874 605.75 635.074 607.35C610.407 609.35 607.34 612.684 623.34 620.284C628.94 622.95 633.074 623.75 646.14 624.284C672.007 625.617 702.007 628.017 704.54 628.95C706.274 629.617 702.674 631.75 691.874 636.417C655.207 652.15 620.14 671.75 615.34 679.084C612.807 683.084 613.874 687.084 618.274 690.017C620.807 691.617 623.474 691.884 630.274 691.35C638.14 690.55 643.34 688.417 679.207 670.55C728.674 646.017 751.74 635.75 757.207 635.75C762.007 635.75 810.274 644.55 813.874 646.15C815.74 646.95 808.807 650.017 788.54 657.617C753.74 670.684 720.007 685.084 695.874 697.217C657.74 716.284 648.14 725.084 656.274 733.217C658.807 735.75 660.274 736.017 668.674 735.484C677.874 734.817 680.007 734.017 715.607 716.284C767.474 690.284 847.074 655.75 854.94 655.75C856.274 655.75 867.207 658.417 879.074 661.75C910.274 670.284 916.14 672.017 916.14 672.95C916.14 673.35 904.007 677.884 889.074 682.95C829.207 703.217 778.14 723.484 740.807 741.75C716.407 753.617 704.674 760.684 697.874 767.617C692.54 772.817 692.407 774.817 696.94 779.35C700.14 782.55 700.94 782.684 709.74 782.15C718.54 781.484 721.34 780.284 755.34 763.35C820.274 730.95 872.14 709.084 932.54 688.417C945.607 683.884 950.274 682.817 952.54 683.75C954.14 684.417 965.074 688.417 976.807 692.55C1005.07 702.417 1043.07 717.617 1073.61 731.084C1095.47 740.817 1164.01 774.284 1167.47 777.084C1171.34 780.017 1185.07 783.75 1192.01 783.75C1200.67 783.75 1204.14 781.35 1204.14 775.35C1204.14 761.217 1127.87 724.95 1014.27 685.084C996.14 678.684 981.74 673.084 982.407 672.684C984.007 671.75 1012.41 663.75 1030.41 659.217L1044.01 655.75L1067.47 665.084C1101.74 678.684 1137.61 695.084 1175.47 714.15C1193.87 723.35 1210.94 731.884 1213.47 733.084C1220.14 736.417 1231.74 738.55 1237.07 737.617C1241.74 736.684 1245.47 732.817 1245.47 728.95C1245.47 717.617 1176.81 683.084 1093.21 652.284C1087.47 650.15 1082.81 648.017 1082.81 647.617C1082.81 646.684 1085.61 646.15 1121.74 639.75L1142.67 636.15L1157.74 642.684C1166.01 646.15 1192.01 658.684 1215.47 670.417C1243.34 684.284 1260.67 692.15 1265.34 693.084C1279.07 695.617 1287.07 690.55 1283.07 681.75C1279.74 674.55 1246.01 655.35 1207.07 638.284C1193.21 632.284 1191.21 630.95 1194.01 630.284C1196.81 629.484 1214.27 628.284 1260.14 625.884C1270.41 625.35 1284.14 619.35 1284.14 615.484C1284.14 610.284 1279.87 609.75 1238.81 609.75C1205.61 609.75 1195.74 610.284 1176.01 612.817L1152.67 615.884L1131.34 608.017C1119.74 603.617 1105.21 598.417 1099.07 596.284C1085.61 591.617 1085.21 591.75 1122.14 587.084C1154.54 583.084 1174.94 581.35 1205.47 579.884C1229.47 578.817 1233.34 577.884 1242.01 571.35C1244.54 569.484 1244.54 569.484 1241.87 566.817C1238.01 562.95 1222.94 561.884 1186.94 562.817C1150.27 563.75 1119.07 567.484 1070.01 576.684L1051.34 580.15L1026.67 572.684C1013.21 568.55 998.54 564.284 994.274 562.95C988.94 561.484 986.94 560.417 988.274 559.75C989.34 559.084 999.474 556.817 1010.94 554.55C1065.87 543.75 1111.61 538.15 1163.61 535.884C1188.14 534.817 1189.47 534.55 1196.27 530.95C1204.14 526.684 1205.87 523.484 1201.47 521.084C1196.67 518.55 1162.81 517.084 1138.27 518.55C1091.34 521.084 1042.41 528.817 977.474 543.884L948.674 550.417L921.474 543.884C837.607 523.617 763.074 513.884 714.807 517.084ZM981.207 577.884C997.874 582.817 1012.14 587.084 1013.07 587.617C1014.01 588.15 999.874 592.284 981.74 596.95L948.807 605.35L917.474 597.084C900.274 592.55 885.607 588.417 884.94 588.017C883.607 587.217 944.14 569.35 948.54 569.217C949.874 569.084 964.54 573.084 981.207 577.884ZM882.807 606.017C896.407 609.217 909.074 612.15 911.207 612.684C913.207 613.084 914.807 613.884 914.807 614.417C914.807 614.95 913.207 615.884 911.207 616.284C909.074 616.817 894.407 621.35 878.407 626.55L849.34 635.884L826.407 630.55C813.74 627.75 800.007 624.684 795.874 623.75C791.607 622.95 788.14 622.017 788.14 621.75C788.14 621.217 814.407 610.95 834.14 603.884C850.94 597.75 847.607 597.617 882.807 606.017ZM1078.94 610.55C1094.67 616.417 1108.01 621.75 1108.67 622.417C1109.21 622.95 1106.27 624.284 1102.01 625.084C1097.61 626.017 1084.81 628.684 1073.47 631.217C1062.14 633.75 1051.47 635.75 1049.74 635.75C1045.87 635.75 982.54 615.484 983.474 614.55C984.54 613.617 1043.07 600.017 1046.94 599.884C1048.94 599.75 1063.34 604.55 1078.94 610.55ZM982.807 634.284C1000.01 640.017 1013.21 645.084 1012.14 645.484C1011.07 645.884 996.274 650.15 979.207 654.95C952.94 662.417 947.74 663.617 944.54 662.284C942.54 661.484 928.274 657.35 912.94 652.95C897.474 648.55 884.807 644.817 884.54 644.684C884.407 644.417 897.874 639.884 914.54 634.55C931.207 629.217 945.474 624.684 946.14 624.417C949.207 623.35 953.074 624.417 982.807 634.284Z" fill="#AE2626"/>
<path d="M1448.81 548.284C1445.07 552.017 1444.14 559.75 1447.34 559.75C1450.67 559.75 1460.81 551.084 1460.81 548.284C1460.81 544.15 1453.07 544.017 1448.81 548.284Z" fill="#AE2626"/>
<path d="M1479.61 555.617C1476.94 558.55 1475.07 567.75 1477.21 567.75C1480.27 567.75 1491.47 558.95 1491.87 556.017C1492.27 553.35 1491.74 553.084 1487.07 553.084C1483.74 553.084 1481.07 553.884 1479.61 555.617Z" fill="#AE2626"/>
<path d="M1511.61 565.35C1507.21 569.35 1505.74 575.35 1508.67 576.55C1511.21 577.484 1520.67 571.617 1522.81 567.884C1523.87 565.75 1523.61 564.95 1521.61 563.75C1517.74 561.75 1515.34 562.15 1511.61 565.35Z" fill="#AE2626"/>
<path d="M1414.94 567.217C1412.14 570.684 1411.07 578.417 1413.34 578.417C1414.01 578.417 1417.47 576.417 1420.94 574.017C1429.21 568.684 1429.87 564.551 1422.67 564.017C1418.67 563.617 1417.21 564.284 1414.94 567.217Z" fill="#AE2626"/>
<path d="M1442.27 576.017C1438.01 579.884 1436.27 586.017 1439.21 587.217C1441.61 588.15 1451.47 582.15 1453.47 578.55C1454.54 576.417 1454.27 575.617 1452.27 574.417C1448.41 572.417 1446.01 572.817 1442.27 576.017Z" fill="#AE2626"/>
<path d="M1479.74 578.684C1477.07 580.817 1474.67 587.084 1475.61 589.751C1476.27 591.351 1477.07 591.351 1481.21 589.217C1487.34 586.151 1492.67 580.417 1491.47 578.551C1490.27 576.551 1482.54 576.684 1479.74 578.684Z" fill="#AE2626"/>
<path d="M1403.74 592.684C1399.34 593.884 1395.07 606.417 1399.21 606.417C1402.14 606.417 1412.14 599.351 1412.94 596.551C1414.14 592.684 1410.27 590.951 1403.74 592.684Z" fill="#AE2626"/>
<path d="M1354.67 718.817C1347.74 723.484 1332.01 734.151 1319.47 742.551C1244.14 793.351 1170.41 820.951 1082.81 830.951C1013.21 838.951 950.14 836.817 785.607 821.084C755.207 818.151 729.34 815.751 728.273 815.751C717.473 816.017 776.14 831.084 808.14 836.417C932.807 856.817 1032.81 859.484 1116.81 844.284C1199.07 829.484 1269.21 798.151 1331.34 748.284C1346.81 735.884 1370.81 713.617 1370.81 711.617C1370.81 708.951 1366.54 710.817 1354.67 718.817Z" fill="#AE2626"/>
<path d="M179.074 734.017C173.74 735.084 164.54 745.084 162.807 751.751C160.807 759.084 161.74 768.417 165.34 776.284C168.807 784.284 171.34 785.351 180.274 783.084C184.274 782.017 189.874 781.084 192.94 781.084C211.74 781.084 239.607 810.951 242.407 834.017C243.34 842.817 242.407 846.684 237.34 852.417C230.407 860.284 224.54 858.817 207.874 844.951C169.207 812.817 122.407 798.017 93.7402 808.817C72.8068 816.817 60.0068 835.217 60.0068 857.217C60.0068 871.084 62.9402 881.751 70.9402 897.751C82.8068 921.751 105.74 950.284 143.474 988.551C162.807 1008.02 170.407 1014.02 174.14 1012.55C175.074 1012.28 179.34 1007.48 183.607 1002.15C187.874 996.817 204.54 978.951 220.807 962.417C273.474 908.684 287.207 891.751 291.74 874.817C294.54 864.684 294.407 845.351 291.474 834.417C284.407 807.084 260.14 772.284 234.674 753.084C213.207 736.951 195.474 730.951 179.074 734.017ZM158.807 856.017C173.874 860.551 192.674 874.951 196.674 885.217C200.14 893.751 198.14 897.617 181.74 913.217C165.34 928.951 161.207 931.751 154.94 931.751C148.94 931.751 143.074 927.884 134.14 918.017C118.807 901.084 112.94 879.884 119.874 866.951C122.54 861.884 130.674 855.884 135.74 855.084C138.54 854.551 141.474 854.017 142.14 853.751C144.007 853.084 153.34 854.417 158.807 856.017Z" fill="#AE2626"/>
<path d="M1660.41 785.617C1648.54 797.617 1638.81 808.284 1638.81 809.217C1638.81 812.417 1640.54 813.751 1648.14 816.951C1665.87 824.417 1695.34 841.884 1698.14 846.551C1699.47 848.551 1692.67 858.017 1678.14 874.417C1664.54 890.017 1642.01 910.817 1639.74 910.017C1635.34 908.684 1615.34 873.751 1609.34 857.351C1607.74 852.684 1605.47 848.551 1604.41 848.017C1601.21 846.817 1597.21 850.284 1576.94 871.751C1555.34 894.551 1555.47 894.151 1560.67 906.551C1575.07 941.751 1653.74 1023.75 1690.81 1042.15C1704.81 1049.22 1704.54 1049.35 1727.74 1026.02C1738.81 1014.95 1748.54 1004.28 1749.47 1002.55C1751.61 998.284 1750.67 997.484 1731.47 987.884C1722.67 983.484 1711.34 977.084 1706.14 973.617C1695.07 966.284 1674.67 949.884 1668.41 943.351L1664.01 938.817L1669.61 931.751C1684.81 912.551 1725.61 873.617 1728.67 875.351C1732.54 877.617 1746.14 894.551 1756.27 909.484C1765.74 923.751 1773.74 938.417 1781.34 956.017C1783.21 960.684 1784.81 962.417 1786.67 962.417C1789.21 962.417 1808.27 943.751 1825.34 924.551C1831.87 917.351 1832.27 916.417 1831.47 911.884C1828.41 894.951 1802.01 859.351 1765.21 822.284C1730.01 787.084 1698.67 763.884 1686.01 763.751C1682.54 763.751 1679.07 766.684 1660.41 785.617Z" fill="#AE2626"/>
<path d="M340.807 857.884C332.54 862.151 316.407 880.017 300.673 902.417C290.273 917.217 255.073 972.151 243.473 991.751C225.473 1022.28 214.54 1047.75 216.94 1053.22C218.673 1056.95 268.273 1090.55 271.473 1090.15C273.607 1089.88 275.473 1086.02 280.807 1070.42C288.273 1049.08 298.273 1028.95 305.473 1020.82C311.607 1014.02 318.14 1012.42 328.94 1015.08C342.14 1018.55 346.273 1025.22 347.74 1045.88C349.207 1066.82 343.873 1089.35 332.14 1112.15C327.74 1120.55 325.607 1126.15 326.14 1127.88C326.673 1129.22 337.207 1137.35 349.74 1146.02C362.14 1154.55 373.207 1162.95 374.273 1164.55C378.273 1170.55 378.007 1176.02 373.473 1184.95C368.673 1194.55 368.94 1197.48 374.407 1202.68C379.74 1207.75 401.473 1221.08 404.273 1221.08C407.873 1221.08 410.14 1216.95 415.607 1200.42C422.14 1180.55 422.007 1177.08 413.607 1158.15C404.673 1138.02 404.14 1133.22 408.807 1114.95C411.873 1102.82 412.407 1098.95 411.607 1090.28C410.407 1076.15 405.473 1057.22 398.14 1039.08C394.54 1030.15 392.14 1022.28 392.407 1020.15C392.807 1016.95 393.607 1016.28 399.473 1014.82C403.207 1013.88 413.607 1011.35 422.673 1009.22C443.34 1004.15 458.273 996.951 469.74 986.417C479.473 977.617 483.607 970.951 482.407 966.284C481.74 964.017 475.073 958.684 459.607 948.017C447.607 939.884 436.94 933.084 436.14 933.084C435.34 933.084 429.473 938.417 423.073 944.817C413.74 954.284 409.207 957.751 399.473 962.684C382.94 971.084 367.34 975.884 353.473 976.684C326.94 978.284 327.607 973.884 361.34 924.151C375.873 902.551 380.007 897.484 386.407 893.751C391.34 890.817 392.673 888.417 390.94 885.484C389.207 882.151 350.407 855.884 347.473 855.751C346.007 855.751 343.073 856.684 340.807 857.884Z" fill="#AE2626"/>
<path d="M988.274 877.217C968.674 880.684 954.54 889.484 934.407 910.817C917.34 928.817 906.807 937.751 895.874 943.751L889.207 947.484L894.94 950.817C902.807 955.484 909.874 956.417 918.14 953.884C921.74 952.817 924.94 952.151 925.34 952.417C925.607 952.817 927.074 956.417 928.407 960.684C935.74 982.017 950.407 993.484 970.807 993.484C988.14 993.484 1002.41 985.617 1010.54 972.017C1013.47 966.951 1014.14 964.151 1014.14 957.084C1014.14 941.617 1004.94 930.417 992.407 930.417H986.274L991.607 934.417C1000.94 941.217 1002.54 948.951 996.274 956.017C992.94 959.751 991.607 960.284 985.607 960.284C980.274 960.284 977.607 959.484 973.207 956.284C956.14 944.284 953.874 922.684 968.007 908.151C975.874 900.017 981.607 897.751 994.807 897.751C1005.07 897.751 1007.07 898.151 1015.21 902.151C1037.74 913.217 1051.74 938.017 1048.14 960.017C1044.54 982.551 1029.61 1001.62 1006.67 1013.22C1002.54 1015.22 989.34 1020.28 977.34 1024.42C965.34 1028.55 954.94 1032.42 954.274 1033.08C952.54 1034.82 970.007 1036.15 982.674 1035.35C1031.34 1032.15 1073.87 990.951 1074.01 947.084C1074.01 914.684 1057.61 891.217 1027.21 880.151C1017.21 876.551 999.474 875.217 988.274 877.217Z" fill="#AE2626"/>
<path d="M1494.14 919.751C1489.74 920.417 1481.07 922.551 1474.81 924.551C1433.47 937.351 1395.34 970.151 1391.34 996.417C1389.74 1007.88 1395.74 1019.22 1406.14 1023.88C1412.41 1026.82 1427.07 1027.22 1432.14 1024.68C1435.07 1023.22 1435.61 1021.75 1436.94 1010.95C1437.87 1002.68 1439.34 997.217 1441.34 994.017C1450.67 978.951 1476.67 965.084 1495.74 965.084C1508.54 965.084 1519.47 972.951 1519.47 982.417C1519.47 988.817 1517.34 991.217 1499.47 1005.08C1482.27 1018.28 1464.81 1036.68 1455.47 1050.95C1441.61 1072.15 1436.94 1086.82 1437.74 1105.88C1438.14 1116.15 1438.94 1119.35 1442.41 1126.55C1456.67 1155.48 1486.54 1162.95 1530.67 1148.82C1547.74 1143.35 1563.21 1136.42 1588.81 1122.82C1629.74 1101.08 1645.47 1090.68 1645.47 1085.35C1645.47 1084.02 1641.47 1076.95 1636.67 1069.75C1631.74 1062.42 1624.27 1049.22 1619.87 1040.42C1596.54 993.884 1570.01 949.484 1558.94 938.284C1543.87 923.351 1518.54 916.017 1494.14 919.751ZM1547.61 1028.42C1552.41 1033.22 1568.41 1066.68 1569.07 1073.48C1569.87 1080.95 1566.27 1086.42 1556.54 1092.68C1530.67 1109.22 1500.54 1107.22 1493.47 1088.42C1489.47 1077.88 1493.47 1060.95 1502.67 1049.35C1518.54 1029.35 1538.94 1019.88 1547.61 1028.42Z" fill="#AE2626"/>
<path d="M535.607 986.551C487.074 992.817 444.007 1035.35 432.807 1088.15C429.874 1101.62 430.274 1124.95 433.474 1137.88C443.741 1178.68 478.941 1208.55 528.807 1218.55C548.007 1222.42 571.874 1219.62 585.741 1212.15C601.874 1203.35 614.541 1184.15 615.874 1166.68C616.274 1160.42 616.007 1157.08 614.941 1156.55C614.141 1156.02 610.007 1157.75 605.874 1160.55C584.541 1174.68 557.874 1175.62 531.207 1162.95C502.807 1149.48 489.207 1121.08 496.807 1091.08C501.741 1071.48 517.741 1048.55 533.474 1038.42C552.941 1025.88 578.807 1026.28 598.541 1039.35C606.274 1044.55 610.674 1051.08 614.941 1063.48C617.207 1070.28 618.274 1071.75 621.741 1072.95C627.741 1075.08 630.674 1074.82 638.141 1071.22C648.941 1066.15 657.474 1054.95 657.474 1046.02C657.474 1032.28 640.674 1013.08 619.207 1002.15C604.141 994.551 589.207 989.751 571.474 987.084C556.941 984.951 549.607 984.817 535.607 986.551Z" fill="#AE2626"/>
<path d="M1330.14 997.884C1304.67 1005.22 1298.81 1007.62 1298.81 1010.95C1298.81 1012.02 1302.94 1018.42 1308.01 1025.08C1318.27 1038.82 1334.14 1068.15 1332.94 1071.22C1331.34 1075.35 1296.54 1088.15 1269.87 1094.42C1252.41 1098.42 1251.61 1098.28 1250.67 1088.42C1249.21 1075.35 1249.34 1047.35 1250.94 1036.28C1251.87 1029.35 1251.87 1025.62 1250.94 1024.68C1248.81 1022.55 1242.67 1023.35 1229.34 1027.62C1222.41 1029.75 1210.67 1033.48 1203.21 1035.75C1193.07 1038.82 1189.07 1040.55 1187.87 1042.82C1176.94 1062.95 1199.34 1166.55 1227.07 1223.62C1234.14 1238.02 1243.07 1249.08 1247.61 1249.08C1250.67 1249.08 1300.54 1235.08 1304.01 1233.22C1305.34 1232.42 1306.81 1230.95 1307.21 1229.88C1307.61 1228.95 1303.07 1220.95 1296.81 1211.88C1284.81 1194.28 1273.74 1172.95 1266.27 1152.82C1259.21 1133.88 1259.07 1134.55 1270.14 1130.02C1281.87 1125.35 1311.07 1116.68 1330.14 1112.42C1341.74 1109.88 1345.07 1109.48 1346.41 1110.82C1347.21 1111.62 1349.21 1118.42 1350.67 1125.75C1355.34 1149.22 1356.54 1165.35 1355.61 1191.35L1354.81 1215.75L1357.74 1216.42C1361.47 1217.35 1416.01 1200.68 1417.74 1198.15C1426.01 1185.35 1419.07 1132.82 1401.47 1075.08C1386.41 1025.75 1368.01 990.017 1357.74 990.551C1356.54 990.551 1344.14 993.884 1330.14 997.884Z" fill="#AE2626"/>
<path d="M719.741 1032.42C690.407 1038.28 674.941 1057.48 684.274 1076.68C689.341 1087.08 704.807 1097.75 710.407 1094.55C711.474 1094.02 714.541 1090.55 717.341 1086.95C726.407 1074.95 739.741 1070.28 757.741 1072.82C783.607 1076.55 801.074 1088.55 802.541 1103.62C803.741 1116.82 798.674 1119.75 774.007 1119.75C716.007 1119.75 669.207 1142.02 658.007 1174.82C654.407 1184.95 654.807 1202.15 658.674 1212.15C666.674 1232.55 692.407 1249.75 730.141 1259.75C769.074 1270.15 842.807 1279.22 847.874 1274.15C848.941 1273.08 849.474 1268.02 849.474 1259.88C849.474 1252.95 851.207 1234.02 853.474 1217.75C859.341 1174.15 861.474 1152.42 862.407 1126.42C863.074 1104.02 863.074 1102.68 859.874 1093.62C848.674 1061.75 817.607 1040.82 768.941 1032.42C754.674 1030.02 732.141 1030.02 719.741 1032.42ZM783.474 1155.88C790.407 1157.62 795.607 1162.02 796.941 1167.22C798.141 1172.15 792.541 1208.28 789.474 1215.35C786.274 1222.55 781.341 1225.08 770.541 1225.08C750.007 1225.08 728.274 1214.42 721.341 1200.95C717.341 1193.08 717.874 1183.08 722.674 1175.48C727.074 1168.68 731.474 1165.08 742.007 1160.28C754.274 1154.68 771.474 1152.82 783.474 1155.88Z" fill="#AE2626"/>
<path d="M1025.07 1052.68C1022.94 1053.08 1021.07 1054.02 1020.67 1055.08C1020.27 1056.02 1022.41 1066.95 1025.34 1079.22C1035.34 1121.48 1036.81 1132.02 1036.81 1162.42C1036.81 1186.95 1036.41 1190.82 1033.74 1200.42C1029.74 1214.42 1024.94 1222.82 1017.21 1229.75C1009.34 1236.82 1000.41 1240.02 988.274 1240.02C967.607 1240.02 955.874 1227.88 950.141 1200.42C947.074 1186.02 946.941 1143.48 950.007 1123.22C952.541 1105.62 957.341 1086.68 962.674 1071.75C964.941 1065.62 966.807 1059.48 966.807 1058.15C966.807 1053.22 962.274 1052.68 932.274 1053.48C908.274 1054.28 903.341 1054.82 901.207 1056.68C890.407 1066.42 882.007 1148.82 886.807 1197.22C890.007 1229.22 899.607 1255.48 912.941 1268.68C922.674 1278.55 933.741 1283.48 949.741 1285.35C969.607 1287.62 982.807 1284.02 1009.47 1269.08C1015.21 1265.75 1017.87 1265.08 1022.01 1265.62C1027.87 1266.28 1029.47 1268.02 1029.47 1273.75C1029.47 1278.95 1030.67 1280.55 1035.34 1282.42C1041.34 1284.68 1062.41 1285.48 1072.14 1283.88C1082.94 1282.15 1086.54 1279.62 1091.07 1270.42C1098.14 1256.42 1099.47 1242.15 1099.34 1176.42C1099.34 1137.08 1098.81 1112.68 1097.61 1102.42C1094.67 1076.15 1090.54 1060.55 1085.21 1054.82C1082.41 1051.75 1081.87 1051.75 1055.61 1051.88C1040.81 1052.02 1027.07 1052.42 1025.07 1052.68Z" fill="#AE2626"/>
</svg>
